<svg width="371" height="336" viewBox="0 0 371 336" fill="none" xmlns="http://www.w3.org/2000/svg">
<g clip-path="url(#clip0_249_2362)">
<path d="M124.228 153.911L179.395 155.821C180.608 158.365 181.152 161.435 181.028 165.033L141.16 250.105L123.828 243.501L164.919 170.779L134.188 169.715L133.22 175.986C132.954 177.878 131.409 179.175 128.583 179.878C125.857 180.584 124.106 180.573 123.331 179.846L124.228 153.911Z" fill="#FF0E0E"/>
<path d="M176.23 203.203C180.84 205.469 185.762 207.129 190.996 208.184C196.27 209.199 201.406 209.707 206.406 209.707C210.859 209.707 214.707 209.355 217.949 208.652C221.191 207.91 223.867 206.914 225.977 205.664C228.086 204.414 229.648 202.93 230.664 201.211C231.68 199.492 232.188 197.637 232.188 195.645C232.188 192.949 231.27 190.547 229.434 188.438C227.598 186.289 224.805 184.688 221.055 183.633C217.344 182.539 212.637 182.109 206.934 182.344C201.27 182.578 194.59 183.691 186.895 185.684L186.953 171.973L221.172 149.707H172.715V133.418H246.016V149.355L215.898 168.457C221.406 168.457 226.328 169.16 230.664 170.566C235 171.973 238.652 173.906 241.621 176.367C244.59 178.828 246.855 181.738 248.418 185.098C249.98 188.457 250.762 192.07 250.762 195.938C250.762 200.508 249.746 204.668 247.715 208.418C245.723 212.129 242.812 215.312 238.984 217.969C235.156 220.586 230.469 222.617 224.922 224.062C219.414 225.508 213.164 226.23 206.172 226.23C198.75 226.23 191.895 225.449 185.605 223.887C179.316 222.285 173.34 220.078 167.676 217.266L176.23 203.203Z" fill="#FF0F0F"/>
</g>
<defs>
<clipPath id="clip0_249_2362">
<rect width="370.911" height="335.936" fill="white"/>
</clipPath>
</defs>
</svg>
