<svg width="371" height="336" viewBox="0 0 371 336" fill="none" xmlns="http://www.w3.org/2000/svg">
<path fill-rule="evenodd" clip-rule="evenodd" d="M317.449 131.899L289.597 156.102C289.828 156.576 290.163 157.273 290.219 157.385C290.816 158.572 291.078 159.84 291.026 161.16C290.985 162.222 290.779 163.26 290.404 164.264C289.945 165.492 289.309 166.62 288.52 167.663C287.406 169.139 286.053 170.364 284.534 171.411C284.138 171.684 283.728 171.939 283.328 172.208C282.645 172.666 282.013 173.187 281.45 173.786C281.118 174.139 280.832 174.525 280.578 174.937C280.27 175.436 280.089 175.982 280.012 176.562C279.96 176.955 280.037 177.333 280.232 177.676C280.299 177.795 280.422 177.889 280.534 177.976C280.699 178.104 280.902 178.115 281.084 178.043C281.629 177.828 282.083 177.464 282.531 177.098C283.657 176.183 284.668 175.151 285.603 174.045C287.992 171.219 289.833 168.079 291.014 164.564C291.153 164.154 291.289 163.742 291.44 163.335C292.113 161.516 293.037 159.833 294.224 158.295C295.288 156.914 296.522 155.699 297.889 154.619C299.064 153.691 300.311 152.869 301.619 152.141C304.573 150.495 307.663 149.151 310.87 148.076C311.783 147.77 312.708 147.495 313.627 147.208C314.411 146.964 315.182 146.695 315.939 146.377C317.47 145.737 318.822 144.83 320.017 143.684C320.678 143.049 321.299 142.377 321.876 141.663C322.603 140.764 323.282 139.829 323.926 138.867C324.22 138.426 324.509 137.982 324.805 137.542C324.857 137.464 324.93 137.392 325.009 137.343C325.107 137.283 325.212 137.301 325.251 137.382C325.564 138.011 325.594 138.677 325.492 139.356C325.262 140.879 324.692 141.375 324.404 142.413C324.394 142.453 324.4 142.511 324.422 142.546C324.481 142.637 324.571 142.651 324.661 142.581C325.165 142.185 325.237 141.811 325.626 141.423C325.66 141.39 325.693 141.354 325.733 141.326C325.818 141.267 325.91 141.241 325.989 141.276C326.084 141.319 326.131 141.403 326.147 141.502C326.352 142.751 326.261 143.997 326.064 145.232C325.789 146.947 325.261 148.592 324.544 150.176C323.749 151.936 322.741 153.566 321.562 155.094C321.238 155.511 320.898 155.917 320.559 156.324C320.344 156.582 320.114 156.828 319.894 157.082C319.824 157.163 319.811 157.259 319.855 157.351C319.894 157.434 319.976 157.488 320.08 157.478C322.186 157.281 324.289 157.052 326.406 156.992C327.415 156.963 328.424 156.913 329.432 156.854C330.055 156.819 330.682 156.783 331.292 156.641C332.184 156.434 333.051 156.149 333.874 155.742C336.441 154.473 338.461 152.604 339.955 150.168C340.181 149.8 340.376 149.411 340.549 149.016C340.76 148.532 340.933 148.034 340.934 147.489C340.934 147.281 341.11 147.167 341.3 147.096C341.58 146.991 341.732 147.075 341.814 147.393C342.892 151.581 342.627 162.923 341.843 166.973C341.308 169.72 340.557 172.404 339.594 175.03C339.031 176.568 338.394 178.075 337.685 179.553C337.516 179.903 337.39 180.262 337.323 180.644C337.29 180.833 337.242 181.021 337.217 181.212C337.038 182.597 336.773 183.969 336.509 185.339C335.952 188.222 335.325 191.089 334.613 193.939C333.141 199.831 331.322 205.61 329.16 211.285C325.445 221.038 320.77 230.308 315.155 239.105C309.722 247.62 303.507 255.521 296.52 262.814C291.21 268.355 285.52 273.475 279.445 278.169C226.511 319.065 152.79 321.136 97.5418 282.675C89.6496 277.181 82.3421 270.993 75.6077 264.129C71.521 259.962 67.681 255.581 64.0915 250.98C58.2077 243.441 53.0707 235.423 48.6816 226.927C43.9815 217.829 40.2355 208.353 37.4458 198.503C35.8051 192.708 34.4928 186.839 33.5808 180.883C33.4426 179.977 33.2621 179.082 32.7955 178.274C29.0765 169.85 27.5885 159.062 28.7703 149.895C28.8567 149.228 28.9968 148.568 29.1226 147.904C29.1581 147.716 29.2253 147.534 29.28 147.349C29.2935 147.302 29.3136 147.258 29.329 147.213C29.3655 147.099 29.5565 147.02 29.688 147.065C29.9203 147.148 30.1527 147.246 30.1555 147.538C30.1594 147.98 30.2832 148.389 30.4387 148.798C30.6451 149.34 30.9178 149.849 31.225 150.34C32.5575 152.464 34.32 154.14 36.5011 155.376C38.0784 156.27 39.769 156.782 41.5872 156.857C42.6951 156.902 43.8019 156.969 44.9098 157.007C46.0666 157.047 47.2215 157.103 48.3706 157.244C48.7047 157.285 49.0445 157.291 49.3795 157.323C49.8595 157.368 50.3376 157.42 50.8176 157.47C50.8656 157.475 50.9136 157.478 50.9616 157.48C51.0624 157.486 51.1603 157.463 51.216 157.386C51.2784 157.299 51.2669 157.197 51.1987 157.116C50.9184 156.786 50.6333 156.461 50.353 156.132C49.2605 154.841 48.2871 153.468 47.4547 151.995C46.3095 149.965 45.4848 147.817 45.0672 145.522C44.8416 144.286 44.7408 143.04 44.8896 141.784C44.9059 141.643 44.9309 141.493 44.9923 141.369C45.0365 141.279 45.1546 141.264 45.2391 141.29C45.4378 141.35 45.529 141.534 45.6586 141.673C45.8218 141.846 45.9389 142.069 46.1847 142.15C46.2154 142.16 46.2682 142.152 46.2883 142.132C46.32 142.099 46.3527 142.046 46.3507 142.004C46.3296 141.659 46.1357 141.37 46.0186 141.057C45.8122 140.511 45.6816 139.949 45.5914 139.38C45.4848 138.707 45.4963 138.035 45.817 137.405C45.8362 137.365 45.8727 137.31 45.9053 137.307C46.0071 137.297 46.104 137.335 46.1597 137.414C46.3565 137.687 46.5495 137.962 46.7347 138.243C47.4768 139.37 48.2496 140.474 49.0935 141.528C49.6963 142.282 50.3443 142.993 51.0403 143.662C52.2336 144.81 53.5776 145.73 55.1117 146.362C55.6023 146.563 56.0967 146.755 56.5978 146.924C57.4195 147.201 58.2442 147.468 59.0746 147.716C62.0851 148.616 64.9623 149.844 67.7703 151.238C69.1959 151.946 70.5715 152.744 71.88 153.651C73.1107 154.504 74.2589 155.455 75.3091 156.525C77.2637 158.515 78.7162 160.817 79.6704 163.435C79.8355 163.887 79.9968 164.34 80.1495 164.797C80.7629 166.632 81.5923 168.368 82.5879 170.023C83.9107 172.222 85.4717 174.233 87.3226 176.016C87.9485 176.619 88.6013 177.189 89.3232 177.673C89.5219 177.806 89.7379 177.916 89.9539 178.021C90.0845 178.085 90.2333 178.094 90.3754 178.05C90.6173 177.973 90.7949 177.817 90.8938 177.586C91.0493 177.225 91.0944 176.847 91.0416 176.455C90.9706 175.922 90.7911 175.428 90.5175 174.968C90.0432 174.171 89.4163 173.509 88.7069 172.921C88.224 172.52 87.7066 172.167 87.1776 171.83C86.4451 171.364 85.7415 170.858 85.0771 170.298C83.7783 169.203 82.6503 167.957 81.7642 166.503C80.9031 165.09 80.3232 163.577 80.1139 161.919C79.921 160.392 80.1504 158.947 80.7821 157.557C80.9213 157.251 81.0893 156.958 81.2487 156.66C81.3399 156.491 81.4416 156.327 81.5347 156.159C81.5415 156.149 81.553 156.126 81.5664 156.095V156.046L53.6285 130.759L88.753 119.002C89.1245 118.061 89.5123 117.128 89.9107 116.2L73.921 82.4362L110.678 84.9821C111.443 84.191 112.221 83.4125 113.01 82.6454L111.187 45.5462L143.973 61.8461C145.073 61.3661 146.18 60.9005 147.3 60.4579L159.757 25.705L183.75 53.2339C184.344 53.2243 184.939 53.2118 185.535 53.2118C186.174 53.2118 186.808 53.2243 187.445 53.2358L212.232 25.9315L223.831 60.481C224.997 60.9427 226.149 61.4294 227.294 61.9315L260.626 46.1933L258.09 82.6752C258.947 83.5085 259.791 84.3523 260.619 85.2144L297.57 83.4048L281.186 116.262C281.63 117.3 282.059 118.348 282.469 119.403L317.441 131.9L317.449 131.899Z" fill="#EE2125"/>
<path fill-rule="evenodd" clip-rule="evenodd" d="M306.519 133.957L278.176 123.829L277.246 121.442C276.856 120.443 276.455 119.457 276.033 118.47L275.009 116.082L288.273 89.4797L258.346 90.9494L256.574 89.1024C255.789 88.2854 254.991 87.4877 254.181 86.7024L252.314 84.8803L254.363 55.3622L227.39 68.0985L225.047 67.0742C223.966 66.5971 222.872 66.1382 221.773 65.7043L219.341 64.7433L209.961 36.7958L189.899 58.8941L187.348 58.8499C186.751 58.8374 186.148 58.8249 185.546 58.8249C184.98 58.8249 184.415 58.8374 183.855 58.8499L181.241 58.8941L161.82 36.6144L151.735 64.7443L149.373 65.6803C148.318 66.1008 147.267 66.5405 146.225 66.9936L143.825 68.0429L117.279 54.8419L118.755 84.9062L116.933 86.6717C116.186 87.4003 115.45 88.1357 114.728 88.8835L112.912 90.768L83.1116 88.7011L96.0793 116.082L95.0799 118.413C94.7026 119.292 94.3388 120.173 93.9865 121.059L93.0246 123.496L64.525 133.034L87.2252 153.58L87.1753 157.343L86.6914 158.411C86.6166 158.575 86.535 158.738 86.4466 158.895C86.365 159.039 86.2834 159.178 86.2076 159.316C86.1068 159.498 85.9878 159.693 85.9004 159.881C85.6998 160.328 85.6306 160.729 85.693 161.213C85.7996 162.073 86.1202 162.847 86.5666 163.581C87.1321 164.505 87.8732 165.302 88.7026 166C89.174 166.397 89.6828 166.761 90.2041 167.094C90.9327 167.553 91.6364 168.042 92.2969 168.595C93.5036 169.595 94.5462 170.744 95.3506 172.089C96.0102 173.2 96.4441 174.419 96.614 175.701C96.8022 177.096 96.6198 178.51 96.061 179.804C95.3132 181.539 93.8684 182.845 92.0646 183.404C90.5497 183.881 88.9234 183.762 87.4969 183.064C87.0505 182.851 86.6175 182.612 86.2028 182.336C85.2034 181.664 84.2991 180.89 83.4313 180.061C81.2319 177.938 79.3532 175.531 77.7826 172.917C76.5769 170.907 75.5708 168.796 74.8297 166.577C74.6914 166.168 74.5474 165.76 74.4025 165.358C73.7238 163.499 72.6937 161.87 71.3113 160.457C70.5068 159.64 69.6274 158.917 68.6847 158.265C67.6038 157.517 66.4604 156.852 65.2796 156.267C62.7596 155.017 60.1714 153.898 57.4758 153.094C56.5772 152.83 55.6911 152.541 54.8118 152.245C54.6294 152.183 54.4537 152.126 54.278 152.057C54.397 152.208 54.5228 152.352 54.6428 152.497C54.925 152.83 55.2082 153.156 55.4905 153.484C57.2252 155.532 57.35 158.498 55.7727 160.678C54.5919 162.312 52.6758 163.191 50.677 163.091C50.533 163.085 50.3881 163.072 50.2498 163.059C49.7852 163.009 49.3263 162.958 48.8617 162.915C48.4719 162.877 48.0889 162.865 47.6934 162.821C46.7065 162.695 45.7081 162.658 44.7212 162.62C43.6028 162.583 42.4844 162.514 41.366 162.469C38.821 162.369 36.4028 161.69 34.165 160.502C34.6047 165.83 35.8614 171.215 37.8466 175.789C38.5628 177.14 38.9084 178.516 39.1407 180.036C40.0134 185.754 41.2767 191.409 42.854 196.97C45.5372 206.445 49.1564 215.605 53.6732 224.352C57.8953 232.52 62.8652 240.274 68.5263 247.524C71.9823 251.953 75.6889 256.188 79.622 260.196C86.1001 266.8 93.1618 272.781 100.753 278.065C153.763 314.965 224.919 313.2 276.013 273.724C281.862 269.206 287.36 264.261 292.468 258.927C299.191 251.916 305.198 244.275 310.426 236.082C315.823 227.626 320.341 218.665 323.916 209.285C325.995 203.825 327.748 198.246 329.168 192.578C329.853 189.832 330.462 187.062 330.997 184.278C331.242 183.021 331.488 181.758 331.651 180.495C331.688 180.206 331.745 179.942 331.795 179.678C331.946 178.786 332.235 177.938 332.624 177.121C333.252 175.808 333.824 174.469 334.321 173.099C335.181 170.756 335.854 168.356 336.331 165.905C336.563 164.693 336.745 162.726 336.852 160.527C336.689 160.616 336.532 160.697 336.368 160.779C335.156 161.376 333.88 161.809 332.568 162.11C331.625 162.33 330.714 162.405 329.753 162.463C328.691 162.525 327.629 162.576 326.568 162.607C324.576 162.663 322.584 162.883 320.605 163.072C318.148 163.298 315.823 161.966 314.774 159.742C313.787 157.643 314.127 155.162 315.647 153.409C315.847 153.177 316.056 152.957 316.25 152.724C316.432 152.505 316.614 152.291 316.797 152.071C316.3 152.246 315.804 152.411 315.301 152.567C314.415 152.843 313.529 153.107 312.655 153.396C309.784 154.364 307.001 155.57 304.349 157.046C303.307 157.624 302.307 158.284 301.371 159.026C300.366 159.817 299.455 160.71 298.669 161.721C297.834 162.807 297.18 163.995 296.709 165.283C296.577 165.635 296.457 165.994 296.338 166.352C294.931 170.536 292.738 174.306 289.892 177.667C288.729 179.043 287.467 180.319 286.071 181.455C285.147 182.209 284.274 182.819 283.15 183.265C281.12 184.063 278.827 183.756 277.093 182.417C276.377 181.858 275.799 181.242 275.347 180.444C274.549 179.037 274.228 177.428 274.442 175.826C274.624 174.456 275.076 173.162 275.799 171.987C276.251 171.252 276.767 170.56 277.357 169.932C278.211 169.027 279.167 168.236 280.197 167.538C280.574 167.287 280.97 167.042 281.347 166.785C282.364 166.081 283.288 165.264 284.036 164.278C284.495 163.668 284.871 163.016 285.142 162.299C285.305 161.86 285.393 161.407 285.411 160.936C285.424 160.566 285.367 160.239 285.197 159.906C284.978 159.46 284.763 159.008 284.545 158.555L282.659 154.685L306.516 133.957H306.519ZM121.545 162.74V135.182H204.721L149.078 264.602H132.026L181.574 150.602H136.97V162.672L121.545 162.741V162.74ZM169.504 110.974H246.585L226.85 149.075C245.675 155.031 260.277 176.927 259.045 196.575C258.448 206.094 254.421 229.718 229.653 240.004C229.653 240.004 202.711 251.477 179.489 233.3C179.489 233.3 175.977 230.567 172.968 227.124L180.086 209.89C192.79 238.22 237.576 232.979 242.942 201.143C245.895 183.588 237.231 169.501 220.154 162.892L214.857 172.066L201.405 165.003L221.366 126.217H169.474L169.506 110.974H169.504ZM295.586 136.019L273.872 128.259L272.013 123.484C271.648 122.541 271.265 121.612 270.869 120.682L268.822 115.9L278.962 95.5613L256.066 96.6864L252.523 92.9923C251.782 92.2195 251.027 91.4717 250.267 90.7238L246.529 87.0921L248.099 64.536L227.472 74.2742L222.791 72.2198C221.766 71.7677 220.743 71.3337 219.706 70.9257L214.85 69.0029L207.687 47.6592L192.343 64.5609L187.248 64.4669C186.682 64.4544 186.11 64.4419 185.545 64.4419C185.011 64.4419 184.476 64.4544 183.948 64.4669L178.721 64.5552L163.88 47.5219L156.165 69.0355L151.434 70.9075C150.441 71.2973 149.455 71.712 148.468 72.1449L143.668 74.2368L123.355 64.1337L124.486 87.1613L120.847 90.6989C120.144 91.3833 119.452 92.0745 118.768 92.7849L115.136 96.5481L92.2969 94.9651L102.243 115.97L100.246 120.626C99.8876 121.455 99.542 122.285 99.2156 123.127L97.2927 127.99L75.4153 135.316L92.8758 151.124L92.775 158.595L91.8073 160.731C91.7574 160.837 91.7065 160.951 91.6566 161.057C91.8572 161.296 92.0962 161.516 92.3228 161.704C92.605 161.943 92.9132 162.156 93.2214 162.358C94.1449 162.948 95.0434 163.577 95.8854 164.274C97.5884 165.682 99.0457 167.321 100.177 169.219C101.226 170.979 101.911 172.926 102.181 174.956C102.508 177.344 102.175 179.806 101.22 182.025C99.8252 185.267 97.1113 187.717 93.7426 188.772C90.8655 189.671 87.7484 189.439 85.0402 188.119C84.3615 187.786 83.702 187.422 83.0742 187C81.805 186.153 80.6425 185.166 79.5366 184.104C76.9858 181.647 74.7932 178.851 72.9711 175.811C71.5513 173.455 70.3705 170.966 69.5026 168.359C69.3836 168.001 69.2511 167.643 69.1254 167.285C68.7231 166.179 68.126 165.236 67.3033 164.394C66.7503 163.835 66.135 163.332 65.4879 162.886C64.6278 162.289 63.7225 161.768 62.7798 161.303C62.4908 161.158 62.2018 161.014 61.9129 160.876C61.5481 161.963 61.0201 163.006 60.3231 163.974C58.0364 167.134 54.279 168.906 50.3833 168.705C50.151 168.692 49.9119 168.673 49.6796 168.648C49.2274 168.604 48.781 168.554 48.3356 168.51C47.8892 168.466 47.4553 168.453 47.0031 168.396C46.1862 168.296 45.351 168.265 44.5273 168.239C43.3964 168.195 42.2655 168.132 41.1346 168.083C41.1346 168.083 41.1289 168.083 41.1222 168.083C41.606 169.91 42.2031 171.689 42.925 173.386C43.8678 175.233 44.3766 177.13 44.6905 179.185C45.5324 184.676 46.7449 190.105 48.2588 195.445C50.8412 204.543 54.3279 213.372 58.67 221.772C62.7289 229.632 67.5106 237.103 72.951 244.07C76.2812 248.337 79.8438 252.408 83.6319 256.266C89.8585 262.612 96.6697 268.38 103.965 273.457C154.921 308.932 223.45 307.241 272.584 269.285C278.208 264.937 283.498 260.174 288.411 255.047C294.877 248.305 300.67 240.935 305.69 233.063C310.879 224.939 315.234 216.3 318.671 207.29C320.668 202.037 322.359 196.671 323.716 191.224C324.383 188.573 324.966 185.896 325.482 183.214C325.702 182.076 325.934 180.926 326.079 179.777C326.129 179.4 326.198 179.036 326.274 178.666C326.519 177.29 326.958 175.957 327.562 174.694C328.115 173.544 328.611 172.369 329.051 171.169C329.422 170.151 329.762 169.121 330.05 168.078C328.945 168.14 327.839 168.197 326.727 168.228C324.861 168.278 322.989 168.492 321.135 168.668C316.328 169.115 311.755 166.506 309.699 162.14C309.499 161.725 309.329 161.298 309.184 160.864C308.474 161.21 307.777 161.574 307.085 161.958C306.307 162.392 305.558 162.881 304.854 163.434C304.214 163.943 303.623 164.515 303.121 165.162C302.63 165.79 302.254 166.488 301.977 167.236C301.871 167.537 301.77 167.845 301.662 168.147C300.035 172.998 297.484 177.395 294.186 181.297C292.798 182.937 291.283 184.464 289.618 185.815C288.243 186.933 286.873 187.837 285.214 188.491C281.35 190.018 276.951 189.409 273.659 186.864C272.353 185.846 271.278 184.659 270.461 183.214C269.061 180.745 268.508 177.904 268.878 175.096C269.161 172.948 269.883 170.893 271.021 169.045C271.668 167.99 272.422 166.998 273.27 166.092C274.408 164.88 275.69 163.811 277.072 162.882C277.43 162.643 277.801 162.411 278.159 162.166C278.636 161.833 279.114 161.45 279.484 160.991L275.727 153.275L295.588 136.022L295.586 136.019Z" fill="#FEFEFE"/>
<mask id="mask0_249_2362" style="mask-type:luminance" maskUnits="userSpaceOnUse" x="34" y="36" width="303" height="269">
<path d="M306.519 133.957L278.176 123.829L277.246 121.442C276.856 120.443 276.455 119.457 276.033 118.47L275.009 116.082L288.273 89.4797L258.346 90.9494L256.574 89.1024C255.789 88.2854 254.991 87.4877 254.181 86.7024L252.314 84.8803L254.363 55.3622L227.39 68.0985L225.047 67.0742C223.966 66.5971 222.872 66.1382 221.773 65.7043L219.341 64.7433L209.961 36.7958L189.899 58.8941L187.348 58.8499C186.751 58.8374 186.148 58.8249 185.546 58.8249C184.98 58.8249 184.415 58.8374 183.855 58.8499L181.241 58.8941L161.82 36.6144L151.735 64.7443L149.373 65.6803C148.318 66.1008 147.267 66.5405 146.225 66.9936L143.825 68.0429L117.279 54.8419L118.755 84.9062L116.933 86.6717C116.186 87.4003 115.45 88.1357 114.728 88.8835L112.912 90.768L83.1116 88.7011L96.0793 116.082L95.0799 118.413C94.7026 119.292 94.3388 120.173 93.9865 121.059L93.0246 123.496L64.525 133.034L87.2252 153.58L87.1753 157.343L86.6914 158.411C86.6166 158.575 86.535 158.738 86.4466 158.895C86.365 159.039 86.2834 159.178 86.2076 159.316C86.1068 159.498 85.9878 159.693 85.9004 159.881C85.6998 160.328 85.6306 160.729 85.693 161.213C85.7996 162.073 86.1202 162.847 86.5666 163.581C87.1321 164.505 87.8732 165.302 88.7026 166C89.174 166.397 89.6828 166.761 90.2041 167.094C90.9327 167.553 91.6364 168.042 92.2969 168.595C93.5036 169.595 94.5462 170.744 95.3506 172.089C96.0102 173.2 96.4441 174.419 96.614 175.701C96.8022 177.096 96.6198 178.51 96.061 179.804C95.3132 181.539 93.8684 182.845 92.0646 183.404C90.5497 183.881 88.9234 183.762 87.4969 183.064C87.0505 182.851 86.6175 182.612 86.2028 182.336C85.2034 181.664 84.2991 180.89 83.4313 180.061C81.2319 177.938 79.3532 175.531 77.7826 172.917C76.5769 170.907 75.5708 168.796 74.8297 166.577C74.6914 166.168 74.5474 165.76 74.4025 165.358C73.7238 163.499 72.6937 161.87 71.3113 160.457C70.5068 159.64 69.6274 158.917 68.6847 158.265C67.6038 157.517 66.4604 156.852 65.2796 156.267C62.7596 155.017 60.1714 153.898 57.4758 153.094C56.5772 152.83 55.6911 152.541 54.8118 152.245C54.6294 152.183 54.4537 152.126 54.278 152.057C54.397 152.208 54.5228 152.352 54.6428 152.497C54.925 152.83 55.2082 153.156 55.4905 153.484C57.2252 155.532 57.35 158.498 55.7727 160.678C54.5919 162.312 52.6758 163.191 50.677 163.091C50.533 163.085 50.3881 163.072 50.2498 163.059C49.7852 163.009 49.3263 162.958 48.8617 162.915C48.4719 162.877 48.0889 162.865 47.6934 162.821C46.7065 162.695 45.7081 162.658 44.7212 162.62C43.6028 162.583 42.4844 162.514 41.366 162.469C38.821 162.369 36.4028 161.69 34.165 160.502C34.6047 165.83 35.8614 171.215 37.8466 175.789C38.5628 177.14 38.9084 178.516 39.1407 180.036C40.0134 185.754 41.2767 191.409 42.854 196.97C45.5372 206.445 49.1564 215.605 53.6732 224.352C57.8953 232.52 62.8652 240.274 68.5263 247.524C71.9823 251.953 75.6889 256.188 79.622 260.196C86.1001 266.8 93.1618 272.781 100.753 278.065C153.763 314.965 224.919 313.2 276.013 273.724C281.862 269.206 287.36 264.261 292.468 258.927C299.191 251.916 305.198 244.275 310.426 236.082C315.823 227.626 320.341 218.665 323.916 209.285C325.995 203.825 327.748 198.246 329.168 192.578C329.853 189.832 330.462 187.062 330.997 184.278C331.242 183.021 331.488 181.758 331.651 180.495C331.688 180.206 331.745 179.942 331.795 179.678C331.946 178.786 332.235 177.938 332.624 177.121C333.252 175.808 333.824 174.469 334.321 173.099C335.181 170.756 335.854 168.356 336.331 165.905C336.563 164.693 336.745 162.726 336.852 160.527C336.689 160.616 336.532 160.697 336.368 160.779C335.156 161.376 333.88 161.809 332.568 162.11C331.625 162.33 330.714 162.405 329.753 162.463C328.691 162.525 327.629 162.576 326.568 162.607C324.576 162.663 322.584 162.883 320.605 163.072C318.148 163.298 315.823 161.966 314.774 159.742C313.787 157.643 314.127 155.162 315.647 153.409C315.847 153.177 316.056 152.957 316.25 152.724C316.432 152.505 316.614 152.291 316.797 152.071C316.3 152.246 315.804 152.411 315.301 152.567C314.415 152.843 313.529 153.107 312.655 153.396C309.784 154.364 307.001 155.57 304.349 157.046C303.307 157.624 302.307 158.284 301.371 159.026C300.366 159.817 299.455 160.71 298.669 161.721C297.834 162.807 297.18 163.995 296.709 165.283C296.577 165.635 296.457 165.994 296.338 166.352C294.931 170.536 292.738 174.306 289.892 177.667C288.729 179.043 287.467 180.319 286.071 181.455C285.147 182.209 284.274 182.819 283.15 183.265C281.12 184.063 278.827 183.756 277.093 182.417C276.377 181.858 275.799 181.242 275.347 180.444C274.549 179.037 274.228 177.428 274.442 175.826C274.624 174.456 275.076 173.162 275.799 171.987C276.251 171.252 276.767 170.56 277.357 169.932C278.211 169.027 279.167 168.236 280.197 167.538C280.574 167.287 280.97 167.042 281.347 166.785C282.364 166.081 283.288 165.264 284.036 164.278C284.495 163.668 284.871 163.016 285.142 162.299C285.305 161.86 285.393 161.407 285.411 160.936C285.424 160.566 285.367 160.239 285.197 159.906C284.978 159.46 284.763 159.008 284.545 158.555L282.659 154.685L306.516 133.957H306.519ZM121.545 162.74V135.182H204.721L149.078 264.602H132.026L181.574 150.602H136.97V162.672L121.545 162.741V162.74ZM169.504 110.974H246.585L226.85 149.075C245.675 155.031 260.277 176.927 259.045 196.575C258.448 206.094 254.421 229.718 229.653 240.004C229.653 240.004 202.711 251.477 179.489 233.3C179.489 233.3 175.977 230.567 172.968 227.124L180.086 209.89C192.79 238.22 237.576 232.979 242.942 201.143C245.895 183.588 237.231 169.501 220.154 162.892L214.857 172.066L201.405 165.003L221.366 126.217H169.474L169.506 110.974H169.504ZM295.586 136.019L273.872 128.259L272.013 123.484C271.648 122.541 271.265 121.612 270.869 120.682L268.822 115.9L278.962 95.5613L256.066 96.6864L252.523 92.9923C251.782 92.2195 251.027 91.4717 250.267 90.7238L246.529 87.0921L248.099 64.536L227.472 74.2742L222.791 72.2198C221.766 71.7677 220.743 71.3337 219.706 70.9257L214.85 69.0029L207.687 47.6592L192.343 64.5609L187.248 64.4669C186.682 64.4544 186.11 64.4419 185.545 64.4419C185.011 64.4419 184.476 64.4544 183.948 64.4669L178.721 64.5552L163.88 47.5219L156.165 69.0355L151.434 70.9075C150.441 71.2973 149.455 71.712 148.468 72.1449L143.668 74.2368L123.355 64.1337L124.486 87.1613L120.847 90.6989C120.144 91.3833 119.452 92.0745 118.768 92.7849L115.136 96.5481L92.2969 94.9651L102.243 115.97L100.246 120.626C99.8876 121.455 99.542 122.285 99.2156 123.127L97.2927 127.99L75.4153 135.316L92.8758 151.124L92.775 158.595L91.8073 160.731C91.7574 160.837 91.7065 160.951 91.6566 161.057C91.8572 161.296 92.0962 161.516 92.3228 161.704C92.605 161.943 92.9132 162.156 93.2214 162.358C94.1449 162.948 95.0434 163.577 95.8854 164.274C97.5884 165.682 99.0457 167.321 100.177 169.219C101.226 170.979 101.911 172.926 102.181 174.956C102.508 177.344 102.175 179.806 101.22 182.025C99.8252 185.267 97.1113 187.717 93.7426 188.772C90.8655 189.671 87.7484 189.439 85.0402 188.119C84.3615 187.786 83.702 187.422 83.0742 187C81.805 186.153 80.6425 185.166 79.5366 184.104C76.9858 181.647 74.7932 178.851 72.9711 175.811C71.5513 173.455 70.3705 170.966 69.5026 168.359C69.3836 168.001 69.2511 167.643 69.1254 167.285C68.7231 166.179 68.126 165.236 67.3033 164.394C66.7503 163.835 66.135 163.332 65.4879 162.886C64.6278 162.289 63.7225 161.768 62.7798 161.303C62.4908 161.158 62.2018 161.014 61.9129 160.876C61.5481 161.963 61.0201 163.006 60.3231 163.974C58.0364 167.134 54.279 168.906 50.3833 168.705C50.151 168.692 49.9119 168.673 49.6796 168.648C49.2274 168.604 48.781 168.554 48.3356 168.51C47.8892 168.466 47.4553 168.453 47.0031 168.396C46.1862 168.296 45.351 168.265 44.5273 168.239C43.3964 168.195 42.2655 168.132 41.1346 168.083C41.1346 168.083 41.1289 168.083 41.1222 168.083C41.606 169.91 42.2031 171.689 42.925 173.386C43.8678 175.233 44.3766 177.13 44.6905 179.185C45.5324 184.676 46.7449 190.105 48.2588 195.445C50.8412 204.543 54.3279 213.372 58.67 221.772C62.7289 229.632 67.5106 237.103 72.951 244.07C76.2812 248.337 79.8438 252.408 83.6319 256.266C89.8585 262.612 96.6697 268.38 103.965 273.457C154.921 308.932 223.45 307.241 272.584 269.285C278.208 264.937 283.498 260.174 288.411 255.047C294.877 248.305 300.67 240.935 305.69 233.063C310.879 224.939 315.234 216.3 318.671 207.29C320.668 202.037 322.359 196.671 323.716 191.224C324.383 188.573 324.966 185.896 325.482 183.214C325.702 182.076 325.934 180.926 326.079 179.777C326.129 179.4 326.198 179.036 326.274 178.666C326.519 177.29 326.958 175.957 327.562 174.694C328.115 173.544 328.611 172.369 329.051 171.169C329.422 170.151 329.762 169.121 330.05 168.078C328.945 168.14 327.839 168.197 326.727 168.228C324.861 168.278 322.989 168.492 321.135 168.668C316.328 169.115 311.755 166.506 309.699 162.14C309.499 161.725 309.329 161.298 309.184 160.864C308.474 161.21 307.777 161.574 307.085 161.958C306.307 162.392 305.558 162.881 304.854 163.434C304.214 163.943 303.623 164.515 303.121 165.162C302.63 165.79 302.254 166.488 301.977 167.236C301.871 167.537 301.77 167.845 301.662 168.147C300.035 172.998 297.484 177.395 294.186 181.297C292.798 182.937 291.283 184.464 289.618 185.815C288.243 186.933 286.873 187.837 285.214 188.491C281.35 190.018 276.951 189.409 273.659 186.864C272.353 185.846 271.278 184.659 270.461 183.214C269.061 180.745 268.508 177.904 268.878 175.096C269.161 172.948 269.883 170.893 271.021 169.045C271.668 167.99 272.422 166.998 273.27 166.092C274.408 164.88 275.69 163.811 277.072 162.882C277.43 162.643 277.801 162.411 278.159 162.166C278.636 161.833 279.114 161.45 279.484 160.991L275.727 153.275L295.588 136.022L295.586 136.019Z" fill="white"/>
</mask>
<g mask="url(#mask0_249_2362)">
<path d="M398.86 -22.6551H-27.8467V363.855H398.86V-22.6551Z" fill="#FEFEFE" stroke="#2B2A29" stroke-width="0.288" stroke-miterlimit="2.61313"/>
</g>
<path d="M125.6 137.88C125.84 137.16 126.32 136.28 127.04 135.24C127.76 134.2 128.76 133.24 130.04 132.36C131.32 131.48 132.4 131.04 133.28 131.04H179.96C180.6 131.04 180.96 131.36 181.04 132C181.2 132.64 181.08 133.36 180.68 134.16L138.56 220.56C138 221.76 137.08 222.92 135.8 224.04C134.6 225.16 133.44 225.92 132.32 226.32C131.28 226.72 130.56 226.64 130.16 226.08C129.76 225.52 129.84 224.64 130.4 223.44L171.08 140.16H126.56C125.44 140.16 125.12 139.4 125.6 137.88ZM196.536 152.64C195.336 153.76 194.176 154.56 193.056 155.04C191.936 155.44 191.136 155.4 190.656 154.92C190.256 154.44 190.416 153.36 191.136 151.68C191.936 149.92 193.096 148 194.616 145.92C201.816 135.92 211.776 130.96 224.496 131.04C241.136 131.12 247.176 139.36 242.616 155.76C240.296 164.24 235.936 171 229.536 176.04C239.776 179.48 243.696 187.16 241.296 199.08C240.176 204.44 238.176 209.12 235.296 213.12C228.816 222.16 219.936 226.64 208.656 226.56C193.776 226.48 185.896 220.04 185.016 207.24C184.936 206.44 185.336 205.4 186.216 204.12C187.096 202.84 188.016 201.8 188.976 201C190.016 200.2 190.896 199.68 191.616 199.44C193.216 198.88 194.056 199.16 194.136 200.28C194.936 211.64 202.016 217.36 215.376 217.44C218.256 217.44 220.736 217.16 222.816 216.6C225.856 215.72 227.976 214.44 229.176 212.76C230.456 211 231.456 208.28 232.176 204.6C233.696 197.4 232.336 192 228.096 188.4C223.856 184.72 216.576 182.96 206.256 183.12C206.016 183.12 205.816 183.12 205.656 183.12C205.576 183.04 205.496 183 205.416 183C204.296 182.92 204.016 182.12 204.576 180.6C205.296 178.52 206.536 176.88 208.296 175.68C210.136 174.4 211.496 173.8 212.376 173.88C217.416 174.2 221.376 173.8 224.256 172.68C227.136 171.48 229.176 170.04 230.376 168.36C231.656 166.68 232.776 164.16 233.736 160.8C235.576 154 235.216 148.88 232.656 145.44C230.096 142 225.136 140.24 217.776 140.16C212.896 140.16 209.096 140.76 206.376 141.96C203.736 143.16 201.976 144.36 201.096 145.56C200.296 146.68 199.616 147.84 199.056 149.04C198.576 150.24 197.736 151.44 196.536 152.64Z" fill="black"/>
</svg>
