<?xml version="1.0" encoding="UTF-8"?>
<!DOCTYPE svg PUBLIC "-//W3C//DTD SVG 1.1//EN" "http://www.w3.org/Graphics/SVG/1.1/DTD/svg11.dtd">
<!-- Creator: CorelDRAW 2018 (64-Bit) -->
<svg xmlns="http://www.w3.org/2000/svg" xml:space="preserve" width="3.86366in" height="3.49933in" version="1.1" style="shape-rendering:geometricPrecision; text-rendering:geometricPrecision; image-rendering:optimizeQuality; fill-rule:evenodd; clip-rule:evenodd"
viewBox="0 0 3863.66 3499.33"
 xmlns:xlink="http://www.w3.org/1999/xlink">
 <defs>
  <style type="text/css">
   <![CDATA[
    .str0 {stroke:#2B2A29;stroke-width:3;stroke-miterlimit:2.61313}
    .fil1 {fill:none}
    .fil2 {fill:#FEFEFE}
    .fil0 {fill:#4B4440}
   ]]>
  </style>
    <clipPath id="id0">
     <path d="M3192.9 1395.39l-295.24 -105.5 -9.69 -24.87c-4.06,-10.41 -8.25,-20.69 -12.63,-30.96l-10.67 -24.87 138.16 -277.11 -311.73 15.31 -18.46 -19.24c-8.18,-8.51 -16.49,-16.82 -24.94,-25l-19.44 -18.98 21.33 -307.48 -280.97 132.67 -24.41 -10.67c-11.26,-4.97 -22.65,-9.75 -34.1,-14.27l-25.33 -10.02 -97.72 -291.11 -208.98 230.18 -26.57 -0.46c-6.22,-0.13 -12.5,-0.26 -18.78,-0.26 -5.89,0 -11.78,0.13 -17.6,0.26l-27.23 0.46 -202.3 -232.08 -105.04 293.01 -24.61 9.75c-10.99,4.39 -21.93,8.97 -32.79,13.68l-25 10.93 -276.52 -137.51 15.38 313.17 -18.98 18.39c-7.79,7.59 -15.44,15.25 -22.97,23.04l-18.91 19.63 -310.43 -21.53 135.09 285.22 -10.41 24.28c-3.93,9.16 -7.72,18.33 -11.39,27.56l-10.01 25.39 -296.87 99.35 236.46 214.02 -0.52 39.2 -5.04 11.13c-0.78,1.7 -1.63,3.41 -2.55,5.04 -0.85,1.5 -1.7,2.94 -2.49,4.38 -1.05,1.9 -2.29,3.93 -3.2,5.89 -2.09,4.65 -2.81,8.83 -2.16,13.87 1.11,8.96 4.45,17.02 9.1,24.67 5.89,9.62 13.61,17.93 22.25,25.2 4.91,4.13 10.21,7.92 15.64,11.39 7.59,4.78 14.92,9.88 21.8,15.64 12.56,10.41 23.43,22.38 31.81,36.39 6.87,11.58 11.39,24.28 13.15,37.63 1.96,14.53 0.07,29.26 -5.76,42.74 -7.79,18.07 -22.84,31.68 -41.62,37.5 -15.78,4.97 -32.72,3.73 -47.58,-3.54 -4.65,-2.22 -9.16,-4.71 -13.48,-7.59 -10.41,-7 -19.83,-15.06 -28.86,-23.69 -22.91,-22.12 -42.48,-47.19 -58.84,-74.42 -12.56,-20.94 -23.04,-42.93 -30.76,-66.04 -1.44,-4.26 -2.94,-8.51 -4.45,-12.7 -7.07,-19.37 -17.8,-36.33 -32.2,-51.05 -8.38,-8.51 -17.54,-16.04 -27.36,-22.84 -11.26,-7.79 -23.17,-14.72 -35.47,-20.81 -26.24,-13.02 -53.21,-24.68 -81.29,-33.05 -9.36,-2.75 -18.59,-5.76 -27.75,-8.84 -1.9,-0.65 -3.73,-1.24 -5.56,-1.96 1.24,1.57 2.56,3.07 3.8,4.58 2.95,3.47 5.89,6.87 8.84,10.28 18.06,21.34 19.37,52.23 2.94,74.94 -12.31,17.02 -32.27,26.18 -53.08,25.13 -1.51,-0.06 -3.01,-0.19 -4.45,-0.33 -4.84,-0.52 -9.62,-1.05 -14.46,-1.5 -4.06,-0.39 -8.05,-0.52 -12.17,-0.98 -10.28,-1.31 -20.68,-1.7 -30.96,-2.09 -11.65,-0.39 -23.3,-1.11 -34.95,-1.57 -26.51,-1.05 -51.7,-8.12 -75,-20.49 4.58,55.5 17.67,111.59 38.35,159.24 7.46,14.07 11.06,28.4 13.48,44.24 9.1,59.56 22.25,118.46 38.68,176.39 27.94,98.7 65.65,194.12 112.7,285.23 43.98,85.08 95.75,165.85 154.72,241.37 36,46.14 74.61,90.26 115.58,132.01 67.48,68.79 141.04,131.09 220.1,186.14 552.19,384.38 1293.4,365.99 1825.62,-45.23 60.93,-47.06 118.2,-98.56 171.41,-154.13 70.03,-73.04 132.6,-152.63 187.06,-237.97 56.22,-88.09 103.28,-181.43 140.52,-279.14 21.67,-56.87 39.93,-114.99 54.72,-174.03 7.13,-28.6 13.48,-57.46 19.04,-86.46 2.56,-13.09 5.11,-26.25 6.81,-39.4 0.39,-3.01 0.98,-5.76 1.51,-8.51 1.57,-9.3 4.58,-18.13 8.64,-26.64 6.54,-13.68 12.5,-27.62 17.67,-41.89 8.97,-24.41 15.97,-49.41 20.94,-74.94 2.42,-12.63 4.32,-33.12 5.43,-56.02 -1.7,0.92 -3.34,1.77 -5.04,2.62 -12.63,6.22 -25.92,10.73 -39.6,13.87 -9.81,2.29 -19.31,3.07 -29.32,3.67 -11.06,0.65 -22.12,1.18 -33.19,1.5 -20.74,0.59 -41.49,2.88 -62.11,4.85 -25.59,2.35 -49.8,-11.52 -60.74,-34.69 -10.28,-21.86 -6.74,-47.71 9.1,-65.97 2.09,-2.42 4.26,-4.71 6.28,-7.13 1.9,-2.29 3.8,-4.52 5.69,-6.81 -5.17,1.83 -10.34,3.54 -15.57,5.17 -9.23,2.88 -18.46,5.63 -27.56,8.64 -29.91,10.08 -58.9,22.64 -86.52,38.02 -10.86,6.02 -21.27,12.89 -31.02,20.62 -10.47,8.24 -19.96,17.54 -28.15,28.07 -8.7,11.32 -15.51,23.69 -20.42,37.11 -1.38,3.67 -2.62,7.4 -3.86,11.13 -14.66,43.59 -37.5,82.86 -67.15,117.87 -12.11,14.33 -25.26,27.62 -39.8,39.46 -9.62,7.85 -18.72,14.2 -30.43,18.85 -21.14,8.31 -45.03,5.11 -63.09,-8.83 -7.46,-5.83 -13.48,-12.24 -18.2,-20.55 -8.31,-14.66 -11.65,-31.42 -9.43,-48.11 1.9,-14.27 6.61,-27.75 14.14,-39.99 4.71,-7.66 10.08,-14.86 16.23,-21.4 8.9,-9.43 18.85,-17.67 29.58,-24.94 3.93,-2.62 8.05,-5.17 11.98,-7.85 10.6,-7.33 20.22,-15.84 28.01,-26.11 4.78,-6.35 8.7,-13.15 11.52,-20.61 1.7,-4.58 2.62,-9.3 2.81,-14.2 0.13,-3.86 -0.46,-7.26 -2.22,-10.73 -2.29,-4.65 -4.52,-9.36 -6.81,-14.07l-19.64 -40.32 248.51 -215.91zm-1926.81 299.82l0 -287.06 866.41 0 -579.61 1348.12 -177.63 0 516.13 -1187.5 -464.62 0 0 125.73 -160.68 0.72zm499.57 -539.23l802.92 0 -205.57 396.88c196.08,62.05 348.19,290.14 335.36,494.8 -6.22,99.15 -48.17,345.24 -306.17,452.38 0,0 -280.64,119.51 -522.54,-69.83 0,0 -36.59,-28.47 -67.94,-64.33l74.15 -179.53c132.34,295.11 598.85,240.53 654.75,-91.1 30.76,-182.87 -59.49,-329.6 -237.38,-398.46l-55.17 95.56 -140.13 -73.57 207.93 -404.02 -540.54 0 0.33 -158.78zm1313.35 260.88l-226.19 -80.83 -19.37 -49.74c-3.8,-9.81 -7.79,-19.5 -11.91,-29.19l-21.33 -49.81 105.63 -211.86 -238.5 11.72 -36.91 -38.48c-7.72,-8.05 -15.57,-15.84 -23.5,-23.63l-38.94 -37.83 16.36 -234.96 -214.87 101.44 -48.76 -21.4c-10.67,-4.71 -21.33,-9.23 -32.13,-13.48l-50.59 -20.02 -74.61 -222.33 -159.83 176.06 -53.08 -0.98c-5.89,-0.13 -11.84,-0.26 -17.74,-0.26 -5.56,0 -11.13,0.13 -16.62,0.26l-54.45 0.92 -154.59 -177.43 -80.37 224.1 -49.28 19.5c-10.34,4.06 -20.61,8.37 -30.89,12.89l-50 21.79 -211.59 -105.24 11.78 239.87 -37.89 36.85c-7.33,7.13 -14.53,14.33 -21.67,21.73l-37.83 39.2 -237.91 -16.49 103.6 218.8 -20.81 48.5c-3.73,8.64 -7.33,17.28 -10.73,26.05l-20.03 50.66 -227.89 76.31 181.88 164.67 -1.05 77.82 -10.08 22.25c-0.52,1.11 -1.05,2.29 -1.57,3.4 2.09,2.49 4.58,4.78 6.94,6.74 2.94,2.49 6.15,4.71 9.36,6.81 9.62,6.15 18.98,12.7 27.75,19.96 17.74,14.66 32.92,31.74 44.7,51.51 10.93,18.33 18.06,38.61 20.88,59.76 3.41,24.87 -0.07,50.52 -10.01,73.63 -14.53,33.77 -42.8,59.3 -77.89,70.29 -29.98,9.36 -62.44,6.94 -90.65,-6.81 -7.07,-3.47 -13.94,-7.26 -20.48,-11.65 -13.22,-8.83 -25.33,-19.11 -36.85,-30.17 -26.57,-25.59 -49.41,-54.72 -68.39,-86.39 -14.79,-24.54 -27.09,-50.46 -36.13,-77.62 -1.24,-3.73 -2.62,-7.46 -3.93,-11.19 -4.19,-11.52 -10.41,-21.34 -18.98,-30.11 -5.76,-5.83 -12.17,-11.06 -18.92,-15.71 -8.96,-6.22 -18.39,-11.65 -28.21,-16.49 -3.01,-1.51 -6.02,-3.01 -9.03,-4.45 -3.8,11.32 -9.29,22.19 -16.56,32.27 -23.82,32.92 -62.96,51.38 -103.54,49.28 -2.42,-0.13 -4.91,-0.33 -7.33,-0.59 -4.71,-0.46 -9.36,-0.98 -14.01,-1.44 -4.65,-0.46 -9.16,-0.59 -13.87,-1.18 -8.51,-1.05 -17.21,-1.37 -25.79,-1.64 -11.78,-0.46 -23.56,-1.11 -35.34,-1.63 0,0 -0.07,0 -0.13,0 5.04,19.04 11.26,37.57 18.78,55.24 9.81,19.24 15.12,39 18.39,60.41 8.77,57.2 21.4,113.75 37.18,169.38 26.9,94.77 63.22,186.72 108.44,274.23 42.28,81.88 92.09,159.7 148.77,232.28 34.69,44.44 71.8,86.85 111.26,127.04 64.86,66.1 135.81,126.19 211.79,179.07 530.79,369.52 1244.64,351.92 1756.44,-43.46 58.57,-45.29 113.68,-94.9 164.86,-148.31 67.35,-70.22 127.69,-147 179.98,-229 54.06,-84.63 99.42,-174.62 135.22,-268.47 20.81,-54.72 38.42,-110.61 52.56,-167.35 6.94,-27.62 13.02,-55.5 18.39,-83.44 2.29,-11.85 4.71,-23.83 6.22,-35.8 0.52,-3.93 1.24,-7.72 2.03,-11.58 2.55,-14.33 7.13,-28.21 13.42,-41.37 5.76,-11.98 10.93,-24.22 15.51,-36.72 3.86,-10.6 7.39,-21.33 10.41,-32.2 -11.52,0.65 -23.04,1.24 -34.62,1.57 -19.44,0.52 -38.94,2.75 -58.25,4.58 -50.07,4.65 -97.72,-22.52 -119.12,-68 -2.09,-4.32 -3.86,-8.77 -5.37,-13.29 -7.39,3.6 -14.66,7.39 -21.86,11.39 -8.12,4.52 -15.91,9.62 -23.24,15.38 -6.67,5.3 -12.83,11.26 -18.06,18 -5.11,6.54 -9.03,13.81 -11.91,21.6 -1.11,3.14 -2.16,6.35 -3.27,9.49 -16.95,50.53 -43.52,96.34 -77.88,136.98 -14.46,17.08 -30.24,32.99 -47.58,47.06 -14.33,11.65 -28.6,21.07 -45.88,27.88 -40.25,15.9 -86.07,9.56 -120.36,-16.95 -13.61,-10.6 -24.8,-22.97 -33.31,-38.02 -14.59,-25.72 -20.35,-55.31 -16.49,-84.56 2.94,-22.38 10.47,-43.78 22.31,-63.03 6.74,-10.99 14.59,-21.33 23.43,-30.76 11.85,-12.63 25.2,-23.76 39.59,-33.44 3.73,-2.49 7.59,-4.91 11.32,-7.46 4.98,-3.47 9.95,-7.46 13.81,-12.24l-39.14 -80.37 206.88 -179.72z"/>
    </clipPath>
 </defs>
 <g id="Layer_x0020_1">
  <metadata id="CorelCorpID_0Corel-Layer"/>
  <g id="_2347300952016">
   <path class="fil0" d="M3306.75 1373.95l-290.12 252.11c2.41,4.94 5.9,12.2 6.48,13.37 6.22,12.36 8.95,25.57 8.41,39.32 -0.43,11.06 -2.57,21.87 -6.48,32.33 -4.78,12.8 -11.41,24.54 -19.62,35.41 -11.61,15.37 -25.7,28.13 -41.52,39.04 -4.13,2.85 -8.4,5.5 -12.57,8.3 -7.11,4.77 -13.68,10.2 -19.56,16.44 -3.46,3.68 -6.44,7.7 -9.08,11.99 -3.2,5.2 -5.1,10.89 -5.9,16.93 -0.54,4.09 0.26,8.03 2.29,11.6 0.7,1.24 1.98,2.22 3.15,3.13 1.73,1.33 3.83,1.44 5.73,0.69 5.67,-2.24 10.4,-6.03 15.07,-9.84 11.73,-9.53 22.26,-20.28 32,-31.8 24.89,-29.44 44.06,-62.15 56.37,-98.76 1.44,-4.28 2.86,-8.56 4.43,-12.8 7.01,-18.95 16.64,-36.48 29,-52.5 11.09,-14.39 23.93,-27.05 38.18,-38.3 12.24,-9.66 25.23,-18.22 38.85,-25.81 30.78,-17.14 62.96,-31.14 96.37,-42.34 9.51,-3.19 19.14,-6.05 28.72,-9.04 8.16,-2.54 16.2,-5.35 24.08,-8.66 15.95,-6.67 30.04,-16.11 42.48,-28.05 6.89,-6.62 13.35,-13.62 19.36,-21.05 7.58,-9.37 14.65,-19.11 21.37,-29.13 3.06,-4.59 6.07,-9.22 9.15,-13.8 0.55,-0.81 1.31,-1.56 2.13,-2.07 1.01,-0.63 2.1,-0.44 2.52,0.4 3.26,6.55 3.57,13.49 2.51,20.56 -2.39,15.87 -8.33,21.05 -11.33,31.86 -0.11,0.42 -0.04,1.02 0.19,1.38 0.61,0.95 1.55,1.1 2.48,0.37 5.26,-4.13 6,-8.02 10.06,-12.06 0.35,-0.35 0.7,-0.72 1.11,-1.01 0.89,-0.62 1.85,-0.89 2.67,-0.52 0.99,0.44 1.48,1.32 1.64,2.35 2.14,13.01 1.19,25.99 -0.86,38.85 -2.86,17.87 -8.37,35 -15.83,51.5 -8.29,18.34 -18.79,35.32 -31.07,51.23 -3.37,4.35 -6.91,8.58 -10.43,12.81 -2.24,2.68 -4.64,5.25 -6.93,7.9 -0.73,0.84 -0.87,1.84 -0.41,2.8 0.41,0.87 1.26,1.43 2.35,1.33 21.94,-2.06 43.84,-4.44 65.89,-5.07 10.51,-0.3 21.02,-0.83 31.52,-1.43 6.49,-0.37 13.02,-0.74 19.38,-2.22 9.3,-2.16 18.32,-5.13 26.89,-9.37 26.74,-13.22 47.78,-32.69 63.36,-58.06 2.35,-3.83 4.37,-7.89 6.17,-12 2.21,-5.04 4.01,-10.23 4.02,-15.91 0,-2.16 1.83,-3.35 3.8,-4.09 2.91,-1.09 4.5,-0.22 5.35,3.09 11.23,43.63 8.47,161.77 0.3,203.96 -5.56,28.62 -13.39,56.57 -23.42,83.93 -5.87,16.02 -12.5,31.72 -19.89,47.11 -1.76,3.65 -3.07,7.39 -3.77,11.37 -0.34,1.97 -0.84,3.93 -1.1,5.91 -1.87,14.43 -4.63,28.72 -7.38,42.99 -5.8,30.04 -12.33,59.9 -19.75,89.59 -15.33,61.37 -34.28,121.57 -56.79,180.69 -38.7,101.59 -87.41,198.15 -145.89,289.79 -56.59,88.69 -121.33,171 -194.11,246.97 -55.31,57.71 -114.58,111.05 -177.86,159.94 -551.39,426 -1319.33,447.58 -1894.82,46.94 -82.21,-57.23 -158.33,-121.68 -228.48,-193.18 -42.57,-43.4 -82.57,-89.04 -119.96,-136.96 -61.29,-78.54 -114.8,-162.06 -160.52,-250.56 -48.96,-94.77 -87.98,-193.48 -117.04,-296.08 -17.09,-60.36 -30.76,-121.5 -40.26,-183.54 -1.44,-9.44 -3.32,-18.76 -8.18,-27.18 -38.74,-87.75 -54.24,-200.12 -41.93,-295.61 0.9,-6.95 2.36,-13.84 3.66,-20.74 0.37,-1.96 1.07,-3.86 1.64,-5.78 0.14,-0.49 0.35,-0.95 0.51,-1.42 0.38,-1.19 2.37,-2.02 3.74,-1.54 2.42,0.86 4.84,1.88 4.87,4.92 0.04,4.61 1.33,8.87 2.95,13.13 2.15,5.65 4.99,10.95 8.19,16.06 13.88,22.13 32.25,39.59 54.97,52.46 16.43,9.31 34.04,14.65 52.98,15.43 11.54,0.47 23.07,1.16 34.6,1.56 12.05,0.42 24.08,1 36.06,2.47 3.48,0.43 7.01,0.49 10.51,0.82 5,0.47 9.98,1.01 14.98,1.53 0.5,0.05 1,0.09 1.5,0.11 1.05,0.06 2.06,-0.18 2.64,-0.98 0.65,-0.91 0.53,-1.97 -0.18,-2.81 -2.92,-3.44 -5.89,-6.83 -8.81,-10.26 -11.39,-13.44 -21.52,-27.74 -30.19,-43.09 -11.93,-21.14 -20.52,-43.52 -24.87,-67.43 -2.35,-12.87 -3.4,-25.85 -1.85,-38.93 0.18,-1.47 0.43,-3.03 1.07,-4.33 0.46,-0.93 1.69,-1.09 2.57,-0.82 2.07,0.63 3.02,2.54 4.37,3.98 1.7,1.8 2.92,4.14 5.48,4.97 0.32,0.1 0.87,0.02 1.08,-0.19 0.33,-0.34 0.67,-0.89 0.65,-1.33 -0.22,-3.6 -2.24,-6.61 -3.46,-9.87 -2.15,-5.68 -3.51,-11.54 -4.44,-17.47 -1.11,-7.01 -0.99,-14.01 2.34,-20.57 0.2,-0.41 0.58,-0.99 0.92,-1.02 1.06,-0.1 2.07,0.29 2.66,1.12 2.04,2.84 4.06,5.7 5.99,8.63 7.73,11.74 15.78,23.24 24.57,34.22 6.29,7.85 13.04,15.26 20.28,22.23 12.42,11.96 26.43,21.54 42.41,28.12 5.1,2.1 10.25,4.1 15.48,5.86 8.55,2.88 17.15,5.67 25.8,8.25 31.36,9.37 61.33,22.16 90.59,36.69 14.85,7.37 29.17,15.68 42.81,25.13 12.82,8.89 24.78,18.79 35.72,29.94 20.36,20.73 35.49,44.71 45.43,71.98 1.72,4.71 3.4,9.43 4.99,14.19 6.39,19.11 15.03,37.19 25.4,54.43 13.78,22.91 30.04,43.86 49.32,62.43 6.52,6.28 13.32,12.22 20.84,17.27 2.07,1.39 4.32,2.53 6.57,3.63 1.36,0.66 2.91,0.76 4.39,0.3 2.52,-0.8 4.36,-2.43 5.4,-4.84 1.61,-3.76 2.09,-7.69 1.54,-11.78 -0.74,-5.55 -2.61,-10.7 -5.46,-15.49 -4.94,-8.3 -11.47,-15.19 -18.86,-21.32 -5.03,-4.18 -10.43,-7.85 -15.93,-11.36 -7.63,-4.86 -14.96,-10.13 -21.88,-15.96 -13.53,-11.41 -25.28,-24.39 -34.51,-39.53 -8.97,-14.72 -15.01,-30.48 -17.19,-47.75 -2.01,-15.91 0.38,-30.96 6.96,-45.44 1.45,-3.19 3.2,-6.24 4.86,-9.34 0.95,-1.77 2.01,-3.47 2.98,-5.22 0.07,-0.11 0.19,-0.35 0.33,-0.67l0 -0.51 -291.01 -263.41 365.88 -122.46c3.87,-9.8 7.91,-19.52 12.06,-29.18l-166.56 -351.71 382.89 26.52c7.96,-8.24 16.07,-16.35 24.29,-24.34l-18.98 -386.45 341.52 169.79c11.46,-5 22.99,-9.85 34.65,-14.46l129.75 -362.01 249.93 286.77c6.19,-0.1 12.38,-0.23 18.6,-0.23 6.65,0 13.26,0.13 19.88,0.25l258.2 -284.42 120.82 359.9c12.15,4.81 24.15,9.88 36.08,15.11l347.2 -163.94 -26.4 380.02c8.92,8.68 17.72,17.47 26.33,26.45l384.91 -18.85 -170.67 342.26c4.63,10.82 9.09,21.73 13.37,32.72l364.28 130.18z"/>
   <path class="fil1" d="M3192.9 1395.39l-295.24 -105.5 -9.69 -24.87c-4.06,-10.41 -8.25,-20.69 -12.63,-30.96l-10.67 -24.87 138.16 -277.11 -311.73 15.31 -18.46 -19.24c-8.18,-8.51 -16.49,-16.82 -24.94,-25l-19.44 -18.98 21.33 -307.48 -280.97 132.67 -24.41 -10.67c-11.26,-4.97 -22.65,-9.75 -34.1,-14.27l-25.33 -10.02 -97.72 -291.11 -208.98 230.18 -26.57 -0.46c-6.22,-0.13 -12.5,-0.26 -18.78,-0.26 -5.89,0 -11.78,0.13 -17.6,0.26l-27.23 0.46 -202.3 -232.08 -105.04 293.01 -24.61 9.75c-10.99,4.39 -21.93,8.97 -32.79,13.68l-25 10.93 -276.52 -137.51 15.38 313.17 -18.98 18.39c-7.79,7.59 -15.44,15.25 -22.97,23.04l-18.91 19.63 -310.43 -21.53 135.09 285.22 -10.41 24.28c-3.93,9.16 -7.72,18.33 -11.39,27.56l-10.01 25.39 -296.87 99.35 236.46 214.02 -0.52 39.2 -5.04 11.13c-0.78,1.7 -1.63,3.41 -2.55,5.04 -0.85,1.5 -1.7,2.94 -2.49,4.38 -1.05,1.9 -2.29,3.93 -3.2,5.89 -2.09,4.65 -2.81,8.83 -2.16,13.87 1.11,8.96 4.45,17.02 9.1,24.67 5.89,9.62 13.61,17.93 22.25,25.2 4.91,4.13 10.21,7.92 15.64,11.39 7.59,4.78 14.92,9.88 21.8,15.64 12.56,10.41 23.43,22.38 31.81,36.39 6.87,11.58 11.39,24.28 13.15,37.63 1.96,14.53 0.07,29.26 -5.76,42.74 -7.79,18.07 -22.84,31.68 -41.62,37.5 -15.78,4.97 -32.72,3.73 -47.58,-3.54 -4.65,-2.22 -9.16,-4.71 -13.48,-7.59 -10.41,-7 -19.83,-15.06 -28.86,-23.69 -22.91,-22.12 -42.48,-47.19 -58.84,-74.42 -12.56,-20.94 -23.04,-42.93 -30.76,-66.04 -1.44,-4.26 -2.94,-8.51 -4.45,-12.7 -7.07,-19.37 -17.8,-36.33 -32.2,-51.05 -8.38,-8.51 -17.54,-16.04 -27.36,-22.84 -11.26,-7.79 -23.17,-14.72 -35.47,-20.81 -26.24,-13.02 -53.21,-24.68 -81.29,-33.05 -9.36,-2.75 -18.59,-5.76 -27.75,-8.84 -1.9,-0.65 -3.73,-1.24 -5.56,-1.96 1.24,1.57 2.56,3.07 3.8,4.58 2.95,3.47 5.89,6.87 8.84,10.28 18.06,21.34 19.37,52.23 2.94,74.94 -12.31,17.02 -32.27,26.18 -53.08,25.13 -1.51,-0.06 -3.01,-0.19 -4.45,-0.33 -4.84,-0.52 -9.62,-1.05 -14.46,-1.5 -4.06,-0.39 -8.05,-0.52 -12.17,-0.98 -10.28,-1.31 -20.68,-1.7 -30.96,-2.09 -11.65,-0.39 -23.3,-1.11 -34.95,-1.57 -26.51,-1.05 -51.7,-8.12 -75,-20.49 4.58,55.5 17.67,111.59 38.35,159.24 7.46,14.07 11.06,28.4 13.48,44.24 9.1,59.56 22.25,118.46 38.68,176.39 27.94,98.7 65.65,194.12 112.7,285.23 43.98,85.08 95.75,165.85 154.72,241.37 36,46.14 74.61,90.26 115.58,132.01 67.48,68.79 141.04,131.09 220.1,186.14 552.19,384.38 1293.4,365.99 1825.62,-45.23 60.93,-47.06 118.2,-98.56 171.41,-154.13 70.03,-73.04 132.6,-152.63 187.06,-237.97 56.22,-88.09 103.28,-181.43 140.52,-279.14 21.67,-56.87 39.93,-114.99 54.72,-174.03 7.13,-28.6 13.48,-57.46 19.04,-86.46 2.56,-13.09 5.11,-26.25 6.81,-39.4 0.39,-3.01 0.98,-5.76 1.51,-8.51 1.57,-9.3 4.58,-18.13 8.64,-26.64 6.54,-13.68 12.5,-27.62 17.67,-41.89 8.97,-24.41 15.97,-49.41 20.94,-74.94 2.42,-12.63 4.32,-33.12 5.43,-56.02 -1.7,0.92 -3.34,1.77 -5.04,2.62 -12.63,6.22 -25.92,10.73 -39.6,13.87 -9.81,2.29 -19.31,3.07 -29.32,3.67 -11.06,0.65 -22.12,1.18 -33.19,1.5 -20.74,0.59 -41.49,2.88 -62.11,4.85 -25.59,2.35 -49.8,-11.52 -60.74,-34.69 -10.28,-21.86 -6.74,-47.71 9.1,-65.97 2.09,-2.42 4.26,-4.71 6.28,-7.13 1.9,-2.29 3.8,-4.52 5.69,-6.81 -5.17,1.83 -10.34,3.54 -15.57,5.17 -9.23,2.88 -18.46,5.63 -27.56,8.64 -29.91,10.08 -58.9,22.64 -86.52,38.02 -10.86,6.02 -21.27,12.89 -31.02,20.62 -10.47,8.24 -19.96,17.54 -28.15,28.07 -8.7,11.32 -15.51,23.69 -20.42,37.11 -1.38,3.67 -2.62,7.4 -3.86,11.13 -14.66,43.59 -37.5,82.86 -67.15,117.87 -12.11,14.33 -25.26,27.62 -39.8,39.46 -9.62,7.85 -18.72,14.2 -30.43,18.85 -21.14,8.31 -45.03,5.11 -63.09,-8.83 -7.46,-5.83 -13.48,-12.24 -18.2,-20.55 -8.31,-14.66 -11.65,-31.42 -9.43,-48.11 1.9,-14.27 6.61,-27.75 14.14,-39.99 4.71,-7.66 10.08,-14.86 16.23,-21.4 8.9,-9.43 18.85,-17.67 29.58,-24.94 3.93,-2.62 8.05,-5.17 11.98,-7.85 10.6,-7.33 20.22,-15.84 28.01,-26.11 4.78,-6.35 8.7,-13.15 11.52,-20.61 1.7,-4.58 2.62,-9.3 2.81,-14.2 0.13,-3.86 -0.46,-7.26 -2.22,-10.73 -2.29,-4.65 -4.52,-9.36 -6.81,-14.07l-19.64 -40.32 248.51 -215.91zm-1926.81 299.82l0 -287.06 866.41 0 -579.61 1348.12 -177.63 0 516.13 -1187.5 -464.62 0 0 125.73 -160.68 0.72zm499.57 -539.23l802.92 0 -205.57 396.88c196.08,62.05 348.19,290.14 335.36,494.8 -6.22,99.15 -48.17,345.24 -306.17,452.38 0,0 -280.64,119.51 -522.54,-69.83 0,0 -36.59,-28.47 -67.94,-64.33l74.15 -179.53c132.34,295.11 598.85,240.53 654.75,-91.1 30.76,-182.87 -59.49,-329.6 -237.38,-398.46l-55.17 95.56 -140.13 -73.57 207.93 -404.02 -540.54 0 0.33 -158.78zm1313.35 260.88l-226.19 -80.83 -19.37 -49.74c-3.8,-9.81 -7.79,-19.5 -11.91,-29.19l-21.33 -49.81 105.63 -211.86 -238.5 11.72 -36.91 -38.48c-7.72,-8.05 -15.57,-15.84 -23.5,-23.63l-38.94 -37.83 16.36 -234.96 -214.87 101.44 -48.76 -21.4c-10.67,-4.71 -21.33,-9.23 -32.13,-13.48l-50.59 -20.02 -74.61 -222.33 -159.83 176.06 -53.08 -0.98c-5.89,-0.13 -11.84,-0.26 -17.74,-0.26 -5.56,0 -11.13,0.13 -16.62,0.26l-54.45 0.92 -154.59 -177.43 -80.37 224.1 -49.28 19.5c-10.34,4.06 -20.61,8.37 -30.89,12.89l-50 21.79 -211.59 -105.24 11.78 239.87 -37.89 36.85c-7.33,7.13 -14.53,14.33 -21.67,21.73l-37.83 39.2 -237.91 -16.49 103.6 218.8 -20.81 48.5c-3.73,8.64 -7.33,17.28 -10.73,26.05l-20.03 50.66 -227.89 76.31 181.88 164.67 -1.05 77.82 -10.08 22.25c-0.52,1.11 -1.05,2.29 -1.57,3.4 2.09,2.49 4.58,4.78 6.94,6.74 2.94,2.49 6.15,4.71 9.36,6.81 9.62,6.15 18.98,12.7 27.75,19.96 17.74,14.66 32.92,31.74 44.7,51.51 10.93,18.33 18.06,38.61 20.88,59.76 3.41,24.87 -0.07,50.52 -10.01,73.63 -14.53,33.77 -42.8,59.3 -77.89,70.29 -29.98,9.36 -62.44,6.94 -90.65,-6.81 -7.07,-3.47 -13.94,-7.26 -20.48,-11.65 -13.22,-8.83 -25.33,-19.11 -36.85,-30.17 -26.57,-25.59 -49.41,-54.72 -68.39,-86.39 -14.79,-24.54 -27.09,-50.46 -36.13,-77.62 -1.24,-3.73 -2.62,-7.46 -3.93,-11.19 -4.19,-11.52 -10.41,-21.34 -18.98,-30.11 -5.76,-5.83 -12.17,-11.06 -18.92,-15.71 -8.96,-6.22 -18.39,-11.65 -28.21,-16.49 -3.01,-1.51 -6.02,-3.01 -9.03,-4.45 -3.8,11.32 -9.29,22.19 -16.56,32.27 -23.82,32.92 -62.96,51.38 -103.54,49.28 -2.42,-0.13 -4.91,-0.33 -7.33,-0.59 -4.71,-0.46 -9.36,-0.98 -14.01,-1.44 -4.65,-0.46 -9.16,-0.59 -13.87,-1.18 -8.51,-1.05 -17.21,-1.37 -25.79,-1.64 -11.78,-0.46 -23.56,-1.11 -35.34,-1.63 0,0 -0.07,0 -0.13,0 5.04,19.04 11.26,37.57 18.78,55.24 9.81,19.24 15.12,39 18.39,60.41 8.77,57.2 21.4,113.75 37.18,169.38 26.9,94.77 63.22,186.72 108.44,274.23 42.28,81.88 92.09,159.7 148.77,232.28 34.69,44.44 71.8,86.85 111.26,127.04 64.86,66.1 135.81,126.19 211.79,179.07 530.79,369.52 1244.64,351.92 1756.44,-43.46 58.57,-45.29 113.68,-94.9 164.86,-148.31 67.35,-70.22 127.69,-147 179.98,-229 54.06,-84.63 99.42,-174.62 135.22,-268.47 20.81,-54.72 38.42,-110.61 52.56,-167.35 6.94,-27.62 13.02,-55.5 18.39,-83.44 2.29,-11.85 4.71,-23.83 6.22,-35.8 0.52,-3.93 1.24,-7.72 2.03,-11.58 2.55,-14.33 7.13,-28.21 13.42,-41.37 5.76,-11.98 10.93,-24.22 15.51,-36.72 3.86,-10.6 7.39,-21.33 10.41,-32.2 -11.52,0.65 -23.04,1.24 -34.62,1.57 -19.44,0.52 -38.94,2.75 -58.25,4.58 -50.07,4.65 -97.72,-22.52 -119.12,-68 -2.09,-4.32 -3.86,-8.77 -5.37,-13.29 -7.39,3.6 -14.66,7.39 -21.86,11.39 -8.12,4.52 -15.91,9.62 -23.24,15.38 -6.67,5.3 -12.83,11.26 -18.06,18 -5.11,6.54 -9.03,13.81 -11.91,21.6 -1.11,3.14 -2.16,6.35 -3.27,9.49 -16.95,50.53 -43.52,96.34 -77.88,136.98 -14.46,17.08 -30.24,32.99 -47.58,47.06 -14.33,11.65 -28.6,21.07 -45.88,27.88 -40.25,15.9 -86.07,9.56 -120.36,-16.95 -13.61,-10.6 -24.8,-22.97 -33.31,-38.02 -14.59,-25.72 -20.35,-55.31 -16.49,-84.56 2.94,-22.38 10.47,-43.78 22.31,-63.03 6.74,-10.99 14.59,-21.33 23.43,-30.76 11.85,-12.63 25.2,-23.76 39.59,-33.44 3.73,-2.49 7.59,-4.91 11.32,-7.46 4.98,-3.47 9.95,-7.46 13.81,-12.24l-39.14 -80.37 206.88 -179.72z"/>
   <path id="1" class="fil2" d="M3192.9 1395.39l-295.24 -105.5 -9.69 -24.87c-4.06,-10.41 -8.25,-20.69 -12.63,-30.96l-10.67 -24.87 138.16 -277.11 -311.73 15.31 -18.46 -19.24c-8.18,-8.51 -16.49,-16.82 -24.94,-25l-19.44 -18.98 21.33 -307.48 -280.97 132.67 -24.41 -10.67c-11.26,-4.97 -22.65,-9.75 -34.1,-14.27l-25.33 -10.02 -97.72 -291.11 -208.98 230.18 -26.57 -0.46c-6.22,-0.13 -12.5,-0.26 -18.78,-0.26 -5.89,0 -11.78,0.13 -17.6,0.26l-27.23 0.46 -202.3 -232.08 -105.04 293.01 -24.61 9.75c-10.99,4.39 -21.93,8.97 -32.79,13.68l-25 10.93 -276.52 -137.51 15.38 313.17 -18.98 18.39c-7.79,7.59 -15.44,15.25 -22.97,23.04l-18.91 19.63 -310.43 -21.53 135.09 285.22 -10.41 24.28c-3.93,9.16 -7.72,18.33 -11.39,27.56l-10.01 25.39 -296.87 99.35 236.46 214.02 -0.52 39.2 -5.04 11.13c-0.78,1.7 -1.63,3.41 -2.55,5.04 -0.85,1.5 -1.7,2.94 -2.49,4.38 -1.05,1.9 -2.29,3.93 -3.2,5.89 -2.09,4.65 -2.81,8.83 -2.16,13.87 1.11,8.96 4.45,17.02 9.1,24.67 5.89,9.62 13.61,17.93 22.25,25.2 4.91,4.13 10.21,7.92 15.64,11.39 7.59,4.78 14.92,9.88 21.8,15.64 12.56,10.41 23.43,22.38 31.81,36.39 6.87,11.58 11.39,24.28 13.15,37.63 1.96,14.53 0.07,29.26 -5.76,42.74 -7.79,18.07 -22.84,31.68 -41.62,37.5 -15.78,4.97 -32.72,3.73 -47.58,-3.54 -4.65,-2.22 -9.16,-4.71 -13.48,-7.59 -10.41,-7 -19.83,-15.06 -28.86,-23.69 -22.91,-22.12 -42.48,-47.19 -58.84,-74.42 -12.56,-20.94 -23.04,-42.93 -30.76,-66.04 -1.44,-4.26 -2.94,-8.51 -4.45,-12.7 -7.07,-19.37 -17.8,-36.33 -32.2,-51.05 -8.38,-8.51 -17.54,-16.04 -27.36,-22.84 -11.26,-7.79 -23.17,-14.72 -35.47,-20.81 -26.24,-13.02 -53.21,-24.68 -81.29,-33.05 -9.36,-2.75 -18.59,-5.76 -27.75,-8.84 -1.9,-0.65 -3.73,-1.24 -5.56,-1.96 1.24,1.57 2.56,3.07 3.8,4.58 2.95,3.47 5.89,6.87 8.84,10.28 18.06,21.34 19.37,52.23 2.94,74.94 -12.31,17.02 -32.27,26.18 -53.08,25.13 -1.51,-0.06 -3.01,-0.19 -4.45,-0.33 -4.84,-0.52 -9.62,-1.05 -14.46,-1.5 -4.06,-0.39 -8.05,-0.52 -12.17,-0.98 -10.28,-1.31 -20.68,-1.7 -30.96,-2.09 -11.65,-0.39 -23.3,-1.11 -34.95,-1.57 -26.51,-1.05 -51.7,-8.12 -75,-20.49 4.58,55.5 17.67,111.59 38.35,159.24 7.46,14.07 11.06,28.4 13.48,44.24 9.1,59.56 22.25,118.46 38.68,176.39 27.94,98.7 65.65,194.12 112.7,285.23 43.98,85.08 95.75,165.85 154.72,241.37 36,46.14 74.61,90.26 115.58,132.01 67.48,68.79 141.04,131.09 220.1,186.14 552.19,384.38 1293.4,365.99 1825.62,-45.23 60.93,-47.06 118.2,-98.56 171.41,-154.13 70.03,-73.04 132.6,-152.63 187.06,-237.97 56.22,-88.09 103.28,-181.43 140.52,-279.14 21.67,-56.87 39.93,-114.99 54.72,-174.03 7.13,-28.6 13.48,-57.46 19.04,-86.46 2.56,-13.09 5.11,-26.25 6.81,-39.4 0.39,-3.01 0.98,-5.76 1.51,-8.51 1.57,-9.3 4.58,-18.13 8.64,-26.64 6.54,-13.68 12.5,-27.62 17.67,-41.89 8.97,-24.41 15.97,-49.41 20.94,-74.94 2.42,-12.63 4.32,-33.12 5.43,-56.02 -1.7,0.92 -3.34,1.77 -5.04,2.62 -12.63,6.22 -25.92,10.73 -39.6,13.87 -9.81,2.29 -19.31,3.07 -29.32,3.67 -11.06,0.65 -22.12,1.18 -33.19,1.5 -20.74,0.59 -41.49,2.88 -62.11,4.85 -25.59,2.35 -49.8,-11.52 -60.74,-34.69 -10.28,-21.86 -6.74,-47.71 9.1,-65.97 2.09,-2.42 4.26,-4.71 6.28,-7.13 1.9,-2.29 3.8,-4.52 5.69,-6.81 -5.17,1.83 -10.34,3.54 -15.57,5.17 -9.23,2.88 -18.46,5.63 -27.56,8.64 -29.91,10.08 -58.9,22.64 -86.52,38.02 -10.86,6.02 -21.27,12.89 -31.02,20.62 -10.47,8.24 -19.96,17.54 -28.15,28.07 -8.7,11.32 -15.51,23.69 -20.42,37.11 -1.38,3.67 -2.62,7.4 -3.86,11.13 -14.66,43.59 -37.5,82.86 -67.15,117.87 -12.11,14.33 -25.26,27.62 -39.8,39.46 -9.62,7.85 -18.72,14.2 -30.43,18.85 -21.14,8.31 -45.03,5.11 -63.09,-8.83 -7.46,-5.83 -13.48,-12.24 -18.2,-20.55 -8.31,-14.66 -11.65,-31.42 -9.43,-48.11 1.9,-14.27 6.61,-27.75 14.14,-39.99 4.71,-7.66 10.08,-14.86 16.23,-21.4 8.9,-9.43 18.85,-17.67 29.58,-24.94 3.93,-2.62 8.05,-5.17 11.98,-7.85 10.6,-7.33 20.22,-15.84 28.01,-26.11 4.78,-6.35 8.7,-13.15 11.52,-20.61 1.7,-4.58 2.62,-9.3 2.81,-14.2 0.13,-3.86 -0.46,-7.26 -2.22,-10.73 -2.29,-4.65 -4.52,-9.36 -6.81,-14.07l-19.64 -40.32 248.51 -215.91zm-1926.81 299.82l0 -287.06 866.41 0 -579.61 1348.12 -177.63 0 516.13 -1187.5 -464.62 0 0 125.73 -160.68 0.72zm499.57 -539.23l802.92 0 -205.57 396.88c196.08,62.05 348.19,290.14 335.36,494.8 -6.22,99.15 -48.17,345.24 -306.17,452.38 0,0 -280.64,119.51 -522.54,-69.83 0,0 -36.59,-28.47 -67.94,-64.33l74.15 -179.53c132.34,295.11 598.85,240.53 654.75,-91.1 30.76,-182.87 -59.49,-329.6 -237.38,-398.46l-55.17 95.56 -140.13 -73.57 207.93 -404.02 -540.54 0 0.33 -158.78zm1313.35 260.88l-226.19 -80.83 -19.37 -49.74c-3.8,-9.81 -7.79,-19.5 -11.91,-29.19l-21.33 -49.81 105.63 -211.86 -238.5 11.72 -36.91 -38.48c-7.72,-8.05 -15.57,-15.84 -23.5,-23.63l-38.94 -37.83 16.36 -234.96 -214.87 101.44 -48.76 -21.4c-10.67,-4.71 -21.33,-9.23 -32.13,-13.48l-50.59 -20.02 -74.61 -222.33 -159.83 176.06 -53.08 -0.98c-5.89,-0.13 -11.84,-0.26 -17.74,-0.26 -5.56,0 -11.13,0.13 -16.62,0.26l-54.45 0.92 -154.59 -177.43 -80.37 224.1 -49.28 19.5c-10.34,4.06 -20.61,8.37 -30.89,12.89l-50 21.79 -211.59 -105.24 11.78 239.87 -37.89 36.85c-7.33,7.13 -14.53,14.33 -21.67,21.73l-37.83 39.2 -237.91 -16.49 103.6 218.8 -20.81 48.5c-3.73,8.64 -7.33,17.28 -10.73,26.05l-20.03 50.66 -227.89 76.31 181.88 164.67 -1.05 77.82 -10.08 22.25c-0.52,1.11 -1.05,2.29 -1.57,3.4 2.09,2.49 4.58,4.78 6.94,6.74 2.94,2.49 6.15,4.71 9.36,6.81 9.62,6.15 18.98,12.7 27.75,19.96 17.74,14.66 32.92,31.74 44.7,51.51 10.93,18.33 18.06,38.61 20.88,59.76 3.41,24.87 -0.07,50.52 -10.01,73.63 -14.53,33.77 -42.8,59.3 -77.89,70.29 -29.98,9.36 -62.44,6.94 -90.65,-6.81 -7.07,-3.47 -13.94,-7.26 -20.48,-11.65 -13.22,-8.83 -25.33,-19.11 -36.85,-30.17 -26.57,-25.59 -49.41,-54.72 -68.39,-86.39 -14.79,-24.54 -27.09,-50.46 -36.13,-77.62 -1.24,-3.73 -2.62,-7.46 -3.93,-11.19 -4.19,-11.52 -10.41,-21.34 -18.98,-30.11 -5.76,-5.83 -12.17,-11.06 -18.92,-15.71 -8.96,-6.22 -18.39,-11.65 -28.21,-16.49 -3.01,-1.51 -6.02,-3.01 -9.03,-4.45 -3.8,11.32 -9.29,22.19 -16.56,32.27 -23.82,32.92 -62.96,51.38 -103.54,49.28 -2.42,-0.13 -4.91,-0.33 -7.33,-0.59 -4.71,-0.46 -9.36,-0.98 -14.01,-1.44 -4.65,-0.46 -9.16,-0.59 -13.87,-1.18 -8.51,-1.05 -17.21,-1.37 -25.79,-1.64 -11.78,-0.46 -23.56,-1.11 -35.34,-1.63 0,0 -0.07,0 -0.13,0 5.04,19.04 11.26,37.57 18.78,55.24 9.81,19.24 15.12,39 18.39,60.41 8.77,57.2 21.4,113.75 37.18,169.38 26.9,94.77 63.22,186.72 108.44,274.23 42.28,81.88 92.09,159.7 148.77,232.28 34.69,44.44 71.8,86.85 111.26,127.04 64.86,66.1 135.81,126.19 211.79,179.07 530.79,369.52 1244.64,351.92 1756.44,-43.46 58.57,-45.29 113.68,-94.9 164.86,-148.31 67.35,-70.22 127.69,-147 179.98,-229 54.06,-84.63 99.42,-174.62 135.22,-268.47 20.81,-54.72 38.42,-110.61 52.56,-167.35 6.94,-27.62 13.02,-55.5 18.39,-83.44 2.29,-11.85 4.71,-23.83 6.22,-35.8 0.52,-3.93 1.24,-7.72 2.03,-11.58 2.55,-14.33 7.13,-28.21 13.42,-41.37 5.76,-11.98 10.93,-24.22 15.51,-36.72 3.86,-10.6 7.39,-21.33 10.41,-32.2 -11.52,0.65 -23.04,1.24 -34.62,1.57 -19.44,0.52 -38.94,2.75 -58.25,4.58 -50.07,4.65 -97.72,-22.52 -119.12,-68 -2.09,-4.32 -3.86,-8.77 -5.37,-13.29 -7.39,3.6 -14.66,7.39 -21.86,11.39 -8.12,4.52 -15.91,9.62 -23.24,15.38 -6.67,5.3 -12.83,11.26 -18.06,18 -5.11,6.54 -9.03,13.81 -11.91,21.6 -1.11,3.14 -2.16,6.35 -3.27,9.49 -16.95,50.53 -43.52,96.34 -77.88,136.98 -14.46,17.08 -30.24,32.99 -47.58,47.06 -14.33,11.65 -28.6,21.07 -45.88,27.88 -40.25,15.9 -86.07,9.56 -120.36,-16.95 -13.61,-10.6 -24.8,-22.97 -33.31,-38.02 -14.59,-25.72 -20.35,-55.31 -16.49,-84.56 2.94,-22.38 10.47,-43.78 22.31,-63.03 6.74,-10.99 14.59,-21.33 23.43,-30.76 11.85,-12.63 25.2,-23.76 39.59,-33.44 3.73,-2.49 7.59,-4.91 11.32,-7.46 4.98,-3.47 9.95,-7.46 13.81,-12.24l-39.14 -80.37 206.88 -179.72z"/>
   <g style="clip-path:url(#id0)">
    <g>
     <rect class="fil2 str0" x="-290.06" y="-235.99" width="4444.84" height="4026.16"/>
    </g>
   </g>
  </g>
 </g>
</svg>
